<svg width="77" height="77" xmlns="http://www.w3.org/2000/svg"><g fill="none" fill-rule="evenodd"><path d="M32.083 76.572C13.903 73.364 0 57.536 0 38.5 0 17.325 17.325 0 38.5 0S77 17.325 77 38.5c0 19.036-13.903 34.864-32.083 38.072l-2.14-1.71h-8.555l-2.139 1.71Z" fill="#2D88FF"/><path d="M53.472 49.194 55.183 38.5H44.917v-7.486c0-2.995 1.07-5.347 5.775-5.347h4.92v-9.84c-2.781-.427-5.776-.855-8.556-.855-8.77 0-14.973 5.347-14.973 14.972V38.5h-9.625v10.694h9.625v27.164A32.64 32.64 0 0 0 38.5 77c2.139 0 4.278-.214 6.417-.642V49.194h8.555Z" fill="#FFF"/></g></svg>