<svg width="77" height="77" xmlns="http://www.w3.org/2000/svg"><g fill="none" fill-rule="evenodd"><path d="M76.493 38.095c0 20.968-16.998 37.966-37.966 37.966S.561 59.063.561 38.095 17.559.129 38.527.129s37.966 16.998 37.966 37.966" fill="#24A9E6"/><path d="M55.76 22.855a15.107 15.107 0 0 1-4.883 1.909 7.579 7.579 0 0 0-5.608-2.486c-4.24 0-7.681 3.528-7.681 7.879 0 .617.066 1.217.198 1.794-6.386-.329-12.047-3.462-15.839-8.235a8.02 8.02 0 0 0-1.04 3.965c0 2.733 1.356 5.145 3.419 6.558a7.533 7.533 0 0 1-3.483-.983v.097c0 3.819 2.649 7.005 6.167 7.726a7.324 7.324 0 0 1-2.025.277c-.495 0-.978-.047-1.446-.139.978 3.129 3.814 5.408 7.177 5.468a15.169 15.169 0 0 1-9.543 3.375c-.62 0-1.233-.036-1.833-.108a21.389 21.389 0 0 0 11.779 3.537c14.135 0 21.862-12.004 21.862-22.417 0-.343-.006-.685-.019-1.021a15.78 15.78 0 0 0 3.831-4.078 15.05 15.05 0 0 1-4.412 1.24 7.867 7.867 0 0 0 3.379-4.358" fill="#FFF"/></g></svg>